<svg xmlns="http://www.w3.org/2000/svg" width="120" height="120" viewBox="0 0 120 120">
  <path d="M4 82 Q28 60, 60 68 Q88 76, 114 58 L114 112 L4 112Z" fill="#29a366" opacity=".18"/>
  <path d="M4 94 Q30 72, 60 80 Q88 88, 114 70 L114 112 L4 112Z" fill="#29a366" opacity=".28"/>
  <path d="M4 106 Q32 86, 60 92 Q90 98, 114 82 L114 112 L4 112Z" fill="#29a366" opacity=".55"/>
  <path d="M4 112 Q36 96, 60 102 Q90 108, 114 94 L114 112Z" fill="#247a4e"/>
  <path d="M100 28 C82 6, 36 4, 20 32 C6 56, 14 88, 36 98 C52 106, 80 102, 94 84" stroke="#29a366" stroke-width="13" stroke-linecap="round" fill="none"/>
</svg>
